<?xml version="1.0" encoding="UTF-8" standalone="no"?>
<!-- Created with Inkscape (http://www.inkscape.org/) -->

<svg
   width="320"
   height="320"
   viewBox="0 0 320 320"
   version="1.1"
   id="SVGRoot"
   sodipodi:docname="eti_stuff.svg"
   inkscape:version="1.1.1 (3bf5ae0d25, 2021-09-20)"
   xmlns:inkscape="http://www.inkscape.org/namespaces/inkscape"
   xmlns:sodipodi="http://sodipodi.sourceforge.net/DTD/sodipodi-0.dtd"
   xmlns="http://www.w3.org/2000/svg"
   xmlns:svg="http://www.w3.org/2000/svg">
  <sodipodi:namedview
     id="namedview855"
     pagecolor="#505050"
     bordercolor="#eeeeee"
     borderopacity="1"
     inkscape:pageshadow="0"
     inkscape:pageopacity="0"
     inkscape:pagecheckerboard="0"
     inkscape:document-units="px"
     showgrid="false"
     inkscape:zoom="1.4681256"
     inkscape:cx="131.80071"
     inkscape:cy="193.10336"
     inkscape:window-width="1920"
     inkscape:window-height="1013"
     inkscape:window-x="-9"
     inkscape:window-y="-9"
     inkscape:window-maximized="1"
     inkscape:current-layer="layer1"
     width="320px"
     inkscape:snap-global="true"
     showguides="true"
     inkscape:guide-bbox="true"
     inkscape:snap-smooth-nodes="true"
     inkscape:snap-intersection-paths="true"
     inkscape:snap-page="true">
    <inkscape:grid
       type="xygrid"
       id="grid940"
       empspacing="12"
       color="#ccccff"
       opacity="0.1254902"
       empcolor="#ccccff"
       empopacity="0.25098039" />
  </sodipodi:namedview>
  <defs
     id="defs850" />
  <g
     inkscape:label="Layer 1"
     inkscape:groupmode="layer"
     id="layer1">
    <path
       id="rect1185-24-8"
       style="fill:#000000;stroke:none;stroke-width:0.707527"
       d="m 69.958007,19.245117 v 10.304688 h 90.380863 90.38086 V 19.245117 h -90.38086 z m 35.773433,11.390626 v 8.61914 h 0.004 a 19.071936,19.071936 0 0 0 -4.89453,12.753907 19.071936,19.071936 0 0 0 19.07227,19.072265 19.071936,19.071936 0 0 0 9.96289,-2.878906 h 30.46289 30.46289 a 19.071936,19.071936 0 0 0 9.96289,2.878906 19.071936,19.071936 0 0 0 19.07227,-19.072265 19.071936,19.071936 0 0 0 -4.89453,-12.753907 h 0.004 v -8.61914 h -54.60742 z m 11.54493,8.61914 h 43.0625 43.0625 a 11.749675,11.749675 0 0 1 9.9375,11.605469 11.749675,11.749675 0 0 1 -11.75,11.75 11.749675,11.749675 0 0 1 -11.75,-11.75 11.749675,11.749675 0 0 1 4.34961,-9.099609 h -7.42969 -2.07031 -24.34961 -24.34961 -2.07031 -7.42969 a 11.749675,11.749675 0 0 1 4.34961,9.099609 11.749675,11.749675 0 0 1 -11.75,11.75 11.749675,11.749675 0 0 1 -11.75,-11.75 11.749675,11.749675 0 0 1 9.9375,-11.605469 z m 2.15429,3.015625 a 9.1006597,9.1006597 0 0 0 -9.10156,9.09961 9.1006597,9.1006597 0 0 0 9.10156,9.101562 9.1006597,9.1006597 0 0 0 9.09961,-9.101562 9.1006597,9.1006597 0 0 0 -9.09961,-9.09961 z m 81.81641,0 a 9.1006597,9.1006597 0 0 0 -9.09961,9.09961 9.1006597,9.1006597 0 0 0 9.09961,9.101562 9.1006597,9.1006597 0 0 0 9.10157,-9.101562 9.1006597,9.1006597 0 0 0 -9.10157,-9.09961 z m -63.01367,4.470703 h 22.10547 22.10547 a 19.071936,19.071936 0 0 0 -0.33985,1.580079 h -21.76562 -21.76563 a 19.071936,19.071936 0 0 0 -0.33984,-1.580079 z m 0.7168,5.6875 h 21.38867 21.38867 a 19.071936,19.071936 0 0 0 0.0547,0.708985 h -21.44336 -21.44336 a 19.071936,19.071936 0 0 0 0.0547,-0.708985 z m -0.65625,4.455079 h 22.04492 22.04492 a 19.071936,19.071936 0 0 0 0.11328,0.46875 h -22.1582 -22.15821 a 19.071936,19.071936 0 0 0 0.11329,-0.46875 z m -2.31836,5.298828 h 24.36328 24.36328 a 19.071936,19.071936 0 0 0 0.76758,1.191406 h -25.13086 -25.13086 a 19.071936,19.071936 0 0 0 0.76758,-1.191406 z m -3.73047,7.345703 a 21.589049,21.589049 0 0 1 -12.13477,3.773437 21.589049,21.589049 0 0 1 -7.18359,-1.285156 v 10.189453 h 47.41211 47.41211 V 72.016602 a 21.589049,21.589049 0 0 1 -7.18359,1.285156 21.589049,21.589049 0 0 1 -12.13477,-3.773437 h -28.09375 z m -15.94727,15.769531 v 8.013672 h 44.04102 44.04102 v -8.013672 h -44.04102 z m 3.99023,10.474609 -1.85351,20.101559 h 6.83399 l 2.57421,-12.77539 3.41407,2 3.41406,-2 -2.5957,12.77539 h 7.25586 l 2.40234,-12.77539 3.22461,2 3.22461,-2 -1.19531,12.77539 h 7.36523 l 1.29492,-12.77539 4.69141,2 4.69141,-2 1.29492,12.77539 h 7.36523 l -1.19531,-12.77539 3.22461,2 3.22461,-2 2.40234,12.77539 h 7.25586 l -2.5957,-12.77539 3.41406,2 3.41406,-2 2.57422,12.77539 h 6.83399 l -1.85352,-20.101559 -40.05078,0.433594 z M 69.010741,120.2041 v 8.88477 H 247.50489 v -8.88477 z m 2.675781,15.77734 v 3.60743 c 1.539243,0.36447 2.735304,0.78399 3.585938,1.25781 0.89114,0.43737 1.538295,1.02104 1.943359,1.75 0.44557,0.72895 0.710003,1.67547 0.791016,2.8418 0.121519,1.16632 0.18164,2.60726 0.18164,4.32031 v 47.12695 c 0,1.74949 -0.06012,3.20672 -0.18164,4.37305 -0.121519,1.12988 -0.405993,2.07639 -0.851563,2.84179 -0.405064,0.72896 -1.054172,1.31263 -1.945312,1.75 -0.850634,0.40093 -2.024701,0.78396 -3.523438,1.14844 v 3.60742 h 59.726568 l 1.15429,-19.95507 h -8.32422 c -0.72911,2.2962 -1.39631,4.10194 -2.0039,5.41406 -0.6076,1.31212 -1.19463,2.36807 -1.76172,3.16992 -0.52658,0.80185 -1.15565,1.54968 -1.88477,2.24219 -0.68861,0.6925 -1.41788,1.2397 -2.1875,1.64062 -0.76962,0.40093 -1.63917,0.69081 -2.61133,0.87305 -0.97215,0.14579 -2.16821,0.21875 -3.58593,0.21875 H 97.024413 V 175.0166 h 8.019527 c 1.9038,0 3.32226,0.23712 4.25391,0.71094 0.97215,0.47382 1.80163,1.27441 2.49023,2.40429 0.68861,1.09344 1.31573,2.69854 1.88282,4.8125 h 6.86718 v -22.19726 h -6.86718 c -0.6076,2.22331 -1.25475,3.86294 -1.94336,4.91992 -0.6481,1.05698 -1.47953,1.82306 -2.49219,2.29688 -1.01266,0.43737 -2.40913,0.65625 -4.19141,0.65625 h -8.019527 v -26.24219 h 13.244137 c 3.11899,0 5.32685,0.36284 6.62305,1.09179 1.2962,0.69251 2.41015,1.65922 3.3418,2.89844 0.93164,1.20278 2.06563,3.53552 3.40234,6.99805 h 8.32422 v -17.38477 z m 65.390628,0 v 19.18946 h 8.32226 c 0.44557,-1.64015 1.01452,-3.37293 1.70313,-5.19532 0.68861,-1.85883 1.49804,-3.3343 2.42969,-4.42773 0.97215,-1.09343 2.10614,-1.89403 3.40234,-2.4043 1.2962,-0.51027 3.15946,-0.76562 5.58984,-0.76562 h 4.92188 v 54.50781 c 0,1.74949 -0.0601,3.22496 -0.18164,4.42774 -0.12152,1.16632 -0.42603,2.13108 -0.91211,2.89648 -0.48608,0.7654 -1.23539,1.36731 -2.24805,1.80469 -0.97215,0.40092 -2.3085,0.72924 -4.00976,0.98437 v 3.60742 h 33.53906 v -3.60742 c -1.41772,-0.18224 -2.55171,-0.41935 -3.40234,-0.71094 -0.81013,-0.32803 -1.45924,-0.67458 -1.94531,-1.03906 -0.44557,-0.40092 -0.83025,-0.91164 -1.1543,-1.53125 -0.32405,-0.61961 -0.54645,-1.42021 -0.66797,-2.40429 -0.12152,-1.02054 -0.18164,-2.49601 -0.18164,-4.42774 v -54.50781 h 4.37305 c 1.66076,0 2.99906,0.0912 4.01171,0.27344 1.05317,0.14579 1.92272,0.38095 2.61133,0.70898 0.68861,0.32803 1.33772,0.76578 1.94532,1.3125 0.60759,0.54672 1.17458,1.23983 1.70117,2.07813 0.56709,0.80184 1.07396,1.78679 1.51953,2.95312 0.44557,1.16633 1.05264,2.98835 1.82226,5.4668 h 8.32422 v -19.18946 z m 76.68945,0 v 3.60743 c 1.53925,0.36447 2.73531,0.76575 3.58594,1.20312 0.89114,0.43737 1.5383,1.03929 1.94336,1.80469 0.44557,0.72895 0.71,1.65723 0.79102,2.78711 0.12152,1.12988 0.18164,2.57082 0.18164,4.32031 v 47.18164 c 0,1.74949 -0.0601,3.20672 -0.18164,4.37305 -0.12152,1.12988 -0.406,2.07639 -0.85157,2.84179 -0.40506,0.72896 -1.05221,1.31263 -1.94336,1.75 -0.85063,0.40093 -2.02665,0.78396 -3.52539,1.14844 v 3.60742 h 31.89844 v -3.60742 c -1.17468,-0.25513 -2.16643,-0.54697 -2.97656,-0.875 -0.81013,-0.36448 -1.45728,-0.78399 -1.94336,-1.25781 -0.44557,-0.47382 -0.79016,-1.05554 -1.0332,-1.74805 -0.24304,-0.6925 -0.40532,-1.58625 -0.48633,-2.67968 -0.081,-1.09344 -0.1211,-2.27707 -0.1211,-3.55274 v -47.12695 c 1e-5,-2.04108 0.0802,-3.59146 0.24219,-4.64844 0.16203,-1.05698 0.4465,-1.9123 0.85157,-2.56836 0.40506,-0.65606 0.99209,-1.20325 1.76171,-1.64062 0.81013,-0.47382 2.04432,-0.91158 3.70508,-1.3125 v -3.60743 z M 72.495116,215.72949 v 9.80664 H 250.98926 v -9.80664 z m 35.531254,13.01172 -2.18555,23.71484 h 54.49805 54.49805 l -2.18555,-23.71484 h -8.57227 l 2.00782,12.87891 -4.06446,-2 -4.06445,2 -2.10156,-12.87891 h -7.58203 l 2.02734,12.87891 -4.63281,-2 -4.63086,2 -0.55274,-12.87891 h -12.11328 l 0.32422,12.87891 -8.35742,-2 -8.35742,2 0.32421,-12.87891 h -12.11328 l -0.55273,12.87891 -4.63086,-2 -4.63281,2 2.02734,-12.87891 h -7.58203 l -2.10157,12.87891 -4.06445,-2 -4.06445,2 2.00781,-12.87891 z m -17.412113,27.81055 v 16.51562 h 69.724613 69.72461 V 256.55176 H 160.33887 Z M 73.518554,277.6084 v 23.14648 h 86.820316 86.82031 V 277.6084 h -86.82031 z" />
    <text
       xml:space="preserve"
       style="font-style:normal;font-weight:normal;font-size:40px;line-height:1.25;font-family:sans-serif;fill:#000000;fill-opacity:1;stroke:none"
       x="-141.6019"
       y="68.392754"
       id="text44429"><tspan
         sodipodi:role="line"
         id="tspan44427" /></text>
  </g>
</svg>
